<?xml version="1.0" encoding="utf-8"?>
<!-- Generator: Adobe Illustrator 18.1.1, SVG Export Plug-In . SVG Version: 6.00 Build 0)  -->
<svg version="1.1"
	 id="svg4136" inkscape:version="0.91pre4 r13712" sodipodi:docname="Xbox Logo.svg" xmlns:inkscape="http://www.inkscape.org/namespaces/inkscape" xmlns:sodipodi="http://sodipodi.sourceforge.net/DTD/sodipodi-0.dtd" xmlns:rdf="http://www.w3.org/1999/02/22-rdf-syntax-ns#" xmlns:dc="http://purl.org/dc/elements/1.1/" xmlns:svg="http://www.w3.org/2000/svg" xmlns:cc="http://creativecommons.org/ns#"
	 xmlns="http://www.w3.org/2000/svg" xmlns:xlink="http://www.w3.org/1999/xlink" x="0px" y="0px" viewBox="0 0 372.4 372.6"
	 enable-background="new 0 0 372.4 372.6" xml:space="preserve">
<title  id="title4166">Xbox Logo</title>
<sodipodi:namedview  id="namedview4138" inkscape:pageopacity="0" inkscape:pageshadow="2" inkscape:window-width="1920" inkscape:window-height="1017" inkscape:window-x="-8" inkscape:window-y="-8" inkscape:current-layer="g4146" fit-margin-right="0" fit-margin-bottom="0" inkscape:window-maximized="1" inkscape:cx="120.11921" guidetolerance="10" inkscape:zoom="2.2378738" gridtolerance="10" showgrid="false" bordercolor="#666666" borderopacity="1" inkscape:cy="190.18765" objecttolerance="10" pagecolor="#ffffff" fit-margin-left="0" fit-margin-top="0">
	</sodipodi:namedview>
<g id="g4146" transform="translate(-1.5706619,12.357467)" display="none">
	<path id="path4148" inkscape:connector-curvature="0" display="inline" d="M169.6,354.8c-28-2.6-56.3-12.7-80.7-28.6
		c-20.4-13.3-25-18.7-25-29.7c0-21.9,24.1-60.3,65.4-104.1c23.4-24.9,56.1-54,59.6-53.3c6.8,1.6,61.7,55,82.2,80.2
		c32.5,39.8,47.4,72.4,39.8,86.9c-5.8,11-41.6,32.7-67.8,41C221.5,354.2,193.1,357.1,169.6,354.8L169.6,354.8z M36.5,273.8
		c-17-25.9-25.5-51.6-29.7-88.6C5.5,173,6,166,10,140.9c5-31.3,22.7-67.4,44.2-89.7c9.1-9.5,9.9-9.8,21.1-5.9
		c13.5,4.6,27.9,14.5,50.2,34.7l13.1,11.8l-7.1,8.8c-33.2,40.5-68.1,98-81.2,133.6c-7.1,19.3-10,38.8-6.9,46.8
		C45.3,286.4,43.4,284.5,36.5,273.8z M333.9,278.3c1.7-8.2-0.5-23.2-5.4-38.3c-10.7-32.8-46.6-93.7-79.7-135.2l-10.3-13.1l11.2-10.3
		c14.6-13.5,24.9-21.6,35.8-28.4c8.7-5.4,21.1-10.1,26.4-10.1c3.3,0,14.8,12,24.2,25.1c14.4,20.3,25.1,44.9,30.4,70.4
		c3.5,16.5,3.8,51.9,0.6,68.4c-2.6,13.6-8.2,31.1-13.7,43c-4.1,8.9-14.1,26.2-18.6,31.9C332.6,284.5,332.6,284.5,333.9,278.3
		L333.9,278.3z M172.7,36.6c-15.2-7.7-38.7-16-51.7-18.2c-4.6-0.8-12.3-1.2-17.3-1c-10.7,0.6-10.2,0,6.9-8.1
		C124.9,2.5,136.8-1.5,153-4.9c18.1-3.8,52.4-3.9,70.2-0.1c19.3,4.1,42,12.6,54.9,20.4l3.8,2.3l-8.8-0.5
		c-17.4-0.9-42.7,6.1-69.8,19.4c-8.2,4-15.3,7.2-15.9,7.1C187,43.7,180.3,40.5,172.7,36.6z"/>
</g>
<circle display="none" fill="#D03634" cx="182.3" cy="193" r="140"/>
<path display="none" fill="#F1F1F1" d="M211.5,208.4c-3.6-1.3-12.7-2.7-36-2.7h-22.3c-3.4,0-6.2,2.8-6.2,6.2v32.2
	c0,3.4,2.8,6.2,6.2,6.2h27.4c18.7,0,25.6-0.6,28.2-1.2c5.2-1,9.2-3.1,12.3-6.6c3-3.4,4.4-8,4.4-14c0-5.2-1.2-9.3-3.5-12.8
	C219.5,212.4,216.1,210,211.5,208.4z"/>
<path display="none" fill="#F1F1F1" d="M157,158.2h15.8c16.4,0,26.6-0.2,30.4-0.7c5.9-0.7,10.5-2.7,13.7-5.9c3-3,4.5-7.1,4.5-12.3
	c0-2.5-0.3-4.7-0.9-6.7c-0.9-2.9-5.3-7.7-8.2-8.9c-2-0.9-4.4-1.5-7.1-1.8c-3.9-0.4-16-0.7-35.9-0.7h-12.4c-3.4,0-6.2,2.8-6.2,6.2
	V152C150.8,155.4,153.6,158.2,157,158.2z"/>
<path display="none" fill="#F1F1F1" d="M186.2,2.9C85.2,2.9,3.1,85,3.1,186s82.1,183.1,183.1,183.1S369.3,286.9,369.3,186
	C369.3,85,287.2,2.9,186.2,2.9z M284.3,261.4c-4.9,10-11.8,18.1-20.4,24.1c-8.5,6-19.1,9.8-31.5,11.1c-7.6,0.8-25.2,1.3-52.3,1.5
	l0,0h-60c-10.1,0-18.3-8.2-18.3-18.3V92.2c0-10.1,8.2-18.3,18.3-18.3h72.6c17.3,0,29.9,0.7,38.6,2.2c9.1,1.5,17.3,4.8,24.5,9.7
	c7.3,5,13.4,11.6,18.1,19.7c4.9,8.3,7.4,17.7,7.4,27.9c0,11.1-3,21.4-9,30.6c-3.5,5.4-7.8,10.1-12.7,13.9c-0.2,0.1-0.3,0.2-0.4,0.3
	c0.1,0.1,0.2,0.1,0.3,0.2c8.3,4.1,15.2,9.7,20.5,16.6c7.8,10.1,11.7,22.1,11.7,35.7C291.7,241.1,289.2,251.5,284.3,261.4z"/>
<linearGradient id="SVGID_1_" gradientUnits="userSpaceOnUse" x1="186.2372" y1="1.1332" x2="186.2372" y2="330.0895" gradientTransform="matrix(0.9997 0 0 0.9997 0 0.8669)">
	<stop  offset="0" style="stop-color:#F7F8F9;stop-opacity:0.5"/>
	<stop  offset="0.8" style="stop-color:#161616;stop-opacity:0"/>
</linearGradient>
<circle display="none" fill="url(#SVGID_1_)" cx="186.2" cy="185.8" r="183.8"/>
<circle display="none" fill="#E3C926" cx="182.3" cy="193" r="140"/>
<path display="none" fill="#F1F1F1" d="M186.2,2.6C84.9,2.6,2.5,85,2.5,186.3S84.9,370,186.2,370s183.7-82.4,183.7-183.7
	S287.5,2.6,186.2,2.6z M277.1,114.5L217,209.3c-2.7,4.3-5.1,12.6-5.1,17.7v59.7c0,9.6-7.8,17.4-17.4,17.4h-16.8
	c-9.6,0-17.4-7.8-17.4-17.4v-60c0-5.1-2.4-13.4-5.1-17.7l-59.8-94.5c-2.8-4.5-3.2-9.2-1.2-13c2.1-3.8,6.3-5.9,11.6-5.9h23.8
	c8.4,0,18.1,5.5,22.4,12.7l34.6,58.2c0.2,0.4,0.4,0.6,0.6,0.8c0.1-0.2,0.3-0.4,0.5-0.8l33.9-58.1c4.3-7.3,13.9-12.8,22.3-12.8h23
	c5.3,0,9.5,2.2,11.6,6C280.3,105.3,279.9,110,277.1,114.5z"/>
<linearGradient id="SVGID_2_" gradientUnits="userSpaceOnUse" x1="186.2372" y1="1.1332" x2="186.2372" y2="330.0895" gradientTransform="matrix(0.9997 0 0 0.9997 0 0.8669)">
	<stop  offset="0" style="stop-color:#F7F8F9;stop-opacity:0.5"/>
	<stop  offset="0.8" style="stop-color:#161616;stop-opacity:0"/>
</linearGradient>
<circle display="none" fill="url(#SVGID_2_)" cx="186.2" cy="185.8" r="183.8"/>
<circle display="none" fill="#3093D3" cx="182.3" cy="191" r="140"/>
<path display="none" fill="#F1F1F1" d="M186.2,1.6C85.4,1.6,3.5,83.5,3.5,184.3C3.5,285,85.4,367,186.2,367s182.7-82,182.7-182.7
	C368.9,83.5,286.9,1.6,186.2,1.6z M277.2,290.5c-2,3.8-6.2,5.9-11.5,5.9h-25c-8.3,0-18-5.3-22.5-12.3l-31.1-48.5
	c-0.5-0.8-1-1.1-1.1-1.2c0.1,0-0.4,0.3-0.9,1.2l-31.2,48.5c-4.5,7-14.2,12.3-22.5,12.3h-24.7c-5.3,0-9.4-2.2-11.5-5.9
	c-2-3.8-1.6-8.5,1.3-12.8l54.4-83c2.1-3.2,2.1-9.1,0-12.3L102.7,108c-2.8-4.4-3.3-9.1-1.3-12.9c2.1-3.8,6.2-5.9,11.5-5.9h23.5
	c8.3,0,18,5.3,22.4,12.4l27.2,43.6c0.4,0.6,0.7,0.9,0.9,1c0.1-0.1,0.4-0.4,0.7-1l26.6-43.5c4.4-7.1,14-12.5,22.3-12.5h23.1
	c5.2,0,9.4,2.2,11.5,5.9c2.1,3.8,1.6,8.4-1.2,12.9l-48.6,75.8c-2.1,3.2-2,9.1,0.1,12.3l54.3,81.7C278.7,282,279.2,286.7,277.2,290.5
	z"/>
<linearGradient id="SVGID_3_" gradientUnits="userSpaceOnUse" x1="186.2372" y1="1.1332" x2="186.2372" y2="330.0895" gradientTransform="matrix(0.9997 0 0 0.9997 0 0.8669)">
	<stop  offset="0" style="stop-color:#F7F8F9;stop-opacity:0.5"/>
	<stop  offset="0.8" style="stop-color:#161616;stop-opacity:0"/>
</linearGradient>
<circle display="none" fill="url(#SVGID_3_)" cx="186.2" cy="185.8" r="183.8"/>
<circle display="none" fill="#9BD368" cx="182.3" cy="192" r="140"/>
<path display="none" fill="#F1F1F1" d="M186,160.8l-16.9,46.5c-0.4,1-0.3,1.7-0.2,2c0.2,0.3,0.9,0.5,1.9,0.5h30.7
	c1.2,0,1.8-0.3,1.9-0.5s0.3-0.8-0.2-2L186,160.8z"/>
<path display="none" fill="#161616" d="M186.2,2.4C85.3,2.4,3.3,84.4,3.3,185.3c0,100.8,82,182.9,182.9,182.9
	c100.8,0,182.9-82,182.9-182.9C369.1,84.4,287,2.4,186.2,2.4z M284.7,274.5c-2.5,3.6-6.7,5.7-11.8,5.7h-20.3
	c-8.8,0-17.8-6.2-21-14.4l-8.9-23.3c-1.3-3.5-6-6.7-9.7-6.7h-55.6c-3.7,0-8.2,3.2-9.5,6.7l-8.4,23.2c-3,8.2-12.1,14.6-20.9,14.6
	H99.4c-5,0-9.3-2.1-11.8-5.7c-2.5-3.6-2.9-8.4-1.1-13l68-174.6c3.2-8.2,12.2-14.4,21-14.4h19.1c8.8,0,17.8,6.1,21.1,14.3l69.9,174.5
	C287.5,266.1,287.2,270.9,284.7,274.5z"/>
<circle display="none" fill="#F1F1F1" cx="186.2" cy="186.3" r="183.8"/>
<path display="none" d="M300.1,128.5c13.8,0,26.8-3.8,37.9-10.2c9.1,20.6,14.3,43.3,14.3,67.2c0,17.2-2.6,33.7-7.4,49.2
	c-12.6-9.2-28.1-14.7-44.8-14.7c-42,0-76,34-76,76c0,17.6,6,33.7,16.1,46.6c-17,5.8-35.1,9.2-54.1,9.2c-19,0-37.1-3.3-54-9.2
	c10-12.9,16.1-29,16.1-46.6c0-42-34-76-76-76c-16.8,0-32.2,5.5-44.8,14.7c-4.8-15.5-7.4-32.1-7.4-49.2c0-23.9,5.2-46.7,14.3-67.2
	c11.2,6.5,24.1,10.2,37.9,10.2c42,0,76-34,76-76c0-9.7-1.9-18.9-5.1-27.4c13.8-3.7,28.2-5.9,43.1-5.9c15,0,29.4,2.2,43.2,5.9
	c-3.3,8.5-5.1,17.7-5.1,27.4C224.1,94.4,258.2,128.5,300.1,128.5z"/>
<polygon display="none" points="186.1,341.1 222.3,297.1 149.9,297.1 "/>
<polygon display="none" points="300,149.7 300,222.2 343.9,186 "/>
<polygon display="none" points="149.9,74.7 222.3,74.7 186.1,30.8 "/>
<polygon display="none" points="77.6,222.2 77.6,149.7 33.7,185.9 "/>
<linearGradient id="SVGID_4_" gradientUnits="userSpaceOnUse" x1="186.2372" y1="1.1332" x2="186.2372" y2="330.0895" gradientTransform="matrix(0.9997 0 0 0.9997 0 0.8669)">
	<stop  offset="0" style="stop-color:#F7F8F9;stop-opacity:0.5"/>
	<stop  offset="0.8" style="stop-color:#161616;stop-opacity:0"/>
</linearGradient>
<circle display="none" fill="url(#SVGID_4_)" cx="186.2" cy="185.8" r="183.8"/>
<path display="none" fill="#D03634" d="M268.8,93.8l26.5-81.7l26.5,81.7l-69.5-50.5h86"/>
<path display="none" fill="#F1F1F1" d="M186.1,371.1c102.3,0,185.2-82.9,185.2-185.2S288.4,0.7,186.1,0.7S0.9,83.6,0.9,185.9
	C0.9,288.2,83.8,371.1,186.1,371.1z"/>
<ellipse fill="#5DC21E" stroke="#FFFFFF" stroke-miterlimit="10" cx="186.2" cy="186.4" rx="180.8" ry="181.4"/>
<path fill="#F1F1F1" d="M317.7,62.3c0,0-7.6-9.8-19.8-9.8c-12,0-24.6,5.4-35.7,12.6c-0.4,0.2-0.7,0.4-0.7,0.4v0.2
	c-23.5,14.2-39.6,34.2-39.6,34.2c20.7,19.6,71.4,84.9,87.7,125c25,61.4,9.4,83.8,9.4,83.8c-2.8-33.5-54-93.4-71.9-112.4
	c-9.1-9.8-53.3-54.9-61.4-62.9c-8.1,8.1-52.3,53.1-61.4,62.9c-17.9,19.2-69,78.8-71.9,112.4c0,0-15.5-22.4,9.4-83.8
	c16.3-40.1,67.1-105.2,87.7-125c0,0-16.1-20-39.6-34.2v-0.2c0,0-0.2-0.2-0.7-0.4c-11.1-7.2-23.7-12.8-35.7-12.6
	c-12.2,0-19.8,9.8-19.8,9.8c-30.5,32.7-49,76-49,124.1c0,100.2,81.2,181.4,181.4,181.4s181.4-81.2,181.4-181.4
	C366.7,138.3,348.2,94.9,317.7,62.3z"/>
<path fill="#F1F1F1" d="M283.5,33.3C255.2,14.8,222.4,5,186,5s-69.2,9.8-97.5,28.3c-0.9,0.7-2.4,1.7-3.5,2.8c0.2,0,0.4-0.2,0.7-0.4
	c5-3.9,15.7-7.4,30.9-3.3c18.3,5,42.9,24.4,69.7,45.1c26.8-20.7,51.4-40.1,69.7-45.1c15.2-4.1,25.9-0.7,30.9,3.3
	c0.2,0,0.4,0.2,0.7,0.4C286.2,35.1,284.6,34,283.5,33.3L283.5,33.3z"/>
<path fill="#5DC21E" d="M267.1,318v44.3h56.4V318 M271.1,318v-12.1c0-13.3,10.9-24.2,24.2-24.2c13.3,0,24.2,10.9,24.2,24.2V318h-8.1
	v-12.1c0-8.9-7.3-16.1-16.1-16.1s-16.1,7.3-16.1,16.1V318"/>
</svg>
