<?xml version="1.0" encoding="utf-8"?>
<!-- Generator: Adobe Illustrator 18.1.1, SVG Export Plug-In . SVG Version: 6.00 Build 0)  -->
<svg version="1.1"
	 id="svg4136" sodipodi:docname="Xbox Logo.svg" inkscape:version="0.91pre4 r13712" xmlns:rdf="http://www.w3.org/1999/02/22-rdf-syntax-ns#" xmlns:cc="http://creativecommons.org/ns#" xmlns:dc="http://purl.org/dc/elements/1.1/" xmlns:inkscape="http://www.inkscape.org/namespaces/inkscape" xmlns:svg="http://www.w3.org/2000/svg" xmlns:sodipodi="http://sodipodi.sourceforge.net/DTD/sodipodi-0.dtd"
	 xmlns="http://www.w3.org/2000/svg" xmlns:xlink="http://www.w3.org/1999/xlink" x="0px" y="0px" width="1200px" height="1000px"
	 viewBox="0 0 1200 1000" enable-background="new 0 0 1200 1000" xml:space="preserve">
<title  id="title4166">Xbox Logo</title>
<sodipodi:namedview  id="namedview4138" inkscape:pageopacity="0" inkscape:pageshadow="2" inkscape:window-width="1920" inkscape:window-height="1017" inkscape:window-x="-8" inkscape:window-y="-8" inkscape:current-layer="g4146" fit-margin-right="0" fit-margin-bottom="0" inkscape:window-maximized="1" inkscape:cx="120.11921" showgrid="false" gridtolerance="10" fit-margin-top="0" inkscape:zoom="2.2378738" guidetolerance="10" bordercolor="#666666" fit-margin-left="0" inkscape:cy="190.18765" borderopacity="1" pagecolor="#ffffff" objecttolerance="10">
	</sodipodi:namedview>
<g id="g4146" transform="translate(-1.5706619,12.357467)" display="none">
	<path id="path4148" inkscape:connector-curvature="0" display="inline" d="M551.7,985.4c-77-7.2-154.9-34.9-222-78.6
		c-56.1-36.5-68.7-51.5-68.7-81.6c0-60.4,66.3-165.9,179.8-286.4c64.4-68.4,154.3-148.7,164-146.5c18.8,4.3,169.9,151.4,226.2,220.6
		C920.5,722.4,961.6,812,940.6,852c-15.8,30.3-114.3,89.9-186.5,112.7C694.5,983.8,616.1,991.6,551.7,985.4L551.7,985.4z
		 M185.4,762.4c-46.7-71.4-70-142-81.6-243.7c-3.8-33.5-2.4-52.9,8.6-121.8c13.7-86.2,62.5-185.5,121.6-246.9
		c25-26,27.4-26.8,58-16.4c37,12.6,76.8,40,138.2,95.5l36,32.5l-19.6,24.2C355.3,397.1,259.2,555.4,223,653.4
		c-19.6,53.1-27.6,106.8-19.1,128.8C209.5,797.2,204.4,791.9,185.4,762.4z M1003.7,774.7c4.6-22.5-1.3-63.9-14.8-105.5
		c-29.5-90.2-128.3-257.9-219.3-372l-28.4-36l30.9-28.4c40.3-37,68.4-59.3,98.5-78.1c23.9-14.8,58-27.9,72.7-27.9
		c9.1,0,40.8,33,66.6,69c39.7,55.8,69,123.5,83.7,193.8c9.7,45.4,10.5,142.8,1.6,188.1c-7.2,37.3-22.5,85.6-37.6,118.4
		c-11.3,24.4-38.9,72.2-51.3,87.8C1000.2,791.9,1000.2,791.9,1003.7,774.7L1003.7,774.7z M560,109.6c-41.9-21.2-106.5-44-142.2-50.2
		c-12.6-2.1-33.8-3.2-47.5-2.7c-29.5,1.6-28.2,0,19.1-22.3C428.5,16,461.3,5,505.8-4.4C555.8-14.9,650-15.2,699.1-4.7
		c53.1,11.3,115.7,34.6,151.1,56.1l10.5,6.4l-24.2-1.3c-47.8-2.4-117.6,16.9-192.2,53.4c-22.5,11-42.1,19.9-43.7,19.6
		C599.5,129.2,581,120.4,560,109.6z"/>
</g>
<circle fill="#D03634" cx="589.5" cy="518" r="375.7"/>
<path fill="#161616" d="M667.9,559.3c-9.7-3.5-34.1-7.2-96.6-7.2h-59.8c-9.1,0-16.6,7.5-16.6,16.6v86.4c0,9.1,7.5,16.6,16.6,16.6
	H585c50.2,0,68.7-1.6,75.7-3.2c14-2.7,24.7-8.3,33-17.7c8.1-9.1,11.8-21.5,11.8-37.6c0-14-3.2-25-9.4-34.4
	C689.4,570,680.2,563.6,667.9,559.3z"/>
<path fill="#161616" d="M521.6,424.6H564c44,0,71.4-0.5,81.6-1.9c15.8-1.9,28.2-7.2,36.8-15.8c8.1-8.1,12.1-19.1,12.1-33
	c0-6.7-0.8-12.6-2.4-18c-2.4-7.8-14.2-20.7-22-23.9c-5.4-2.4-11.8-4-19.1-4.8c-10.5-1.1-42.9-1.9-96.3-1.9h-33.3
	c-9.1,0-16.6,7.5-16.6,16.6v66C505,417.1,512.5,424.6,521.6,424.6z"/>
<path fill="#161616" d="M600,7.8c-271.1,0-491.4,220.3-491.4,491.4S328.9,990.6,600,990.6s491.4-220.6,491.4-491.4
	C1091.4,228.1,871.1,7.8,600,7.8z M863.3,701.6c-13.2,26.8-31.7,48.6-54.8,64.7c-22.8,16.1-51.3,26.3-84.5,29.8
	c-20.4,2.1-67.6,3.5-140.4,4l0,0h-161c-27.1,0-49.1-22-49.1-49.1V247.5c0-27.1,22-49.1,49.1-49.1h194.8c46.4,0,80.2,1.9,103.6,5.9
	c24.4,4,46.4,12.9,65.8,26c19.6,13.4,36,31.1,48.6,52.9c13.2,22.3,19.9,47.5,19.9,74.9c0,29.8-8.1,57.4-24.2,82.1
	c-9.4,14.5-20.9,27.1-34.1,37.3c-0.5,0.3-0.8,0.5-1.1,0.8c0.3,0.3,0.5,0.3,0.8,0.5c22.3,11,40.8,26,55,44.6
	c20.9,27.1,31.4,59.3,31.4,95.8C883.1,647.1,876.4,675,863.3,701.6z"/>
<linearGradient id="SVGID_1_" gradientUnits="userSpaceOnUse" x1="186.2559" y1="998.8666" x2="186.2559" y2="669.9103" gradientTransform="matrix(2.683 0 0 -2.683 100.2684 2685.3647)">
	<stop  offset="0" style="stop-color:#F7F8F9;stop-opacity:0.5"/>
	<stop  offset="0.8" style="stop-color:#161616;stop-opacity:0"/>
</linearGradient>
<circle fill="url(#SVGID_1_)" cx="600" cy="498.7" r="493.3"/>
<circle fill="#E3C926" cx="589.5" cy="518" r="375.7"/>
<path fill="#161616" d="M600,7C328.1,7,107,228.1,107,500s221.1,493,493,493s493-221.1,493-493S871.9,7,600,7z M844,307.3
	L682.7,561.7c-7.2,11.5-13.7,33.8-13.7,47.5v160.2c0,25.8-20.9,46.7-46.7,46.7h-45.1c-25.8,0-46.7-20.9-46.7-46.7v-161
	c0-13.7-6.4-36-13.7-47.5L356.3,307.3c-7.5-12.1-8.6-24.7-3.2-34.9c5.6-10.2,16.9-15.8,31.1-15.8h63.9c22.5,0,48.6,14.8,60.1,34.1
	l92.9,156.2c0.5,1.1,1.1,1.6,1.6,2.1c0.3-0.5,0.8-1.1,1.3-2.1l91-155.9c11.5-19.6,37.3-34.4,59.8-34.4h61.7
	c14.2,0,25.5,5.9,31.1,16.1C852.5,282.6,851.5,295.2,844,307.3z"/>
<linearGradient id="SVGID_2_" gradientUnits="userSpaceOnUse" x1="186.2559" y1="998.8666" x2="186.2559" y2="669.9103" gradientTransform="matrix(2.683 0 0 -2.683 100.2684 2685.3647)">
	<stop  offset="0" style="stop-color:#F7F8F9;stop-opacity:0.5"/>
	<stop  offset="0.8" style="stop-color:#161616;stop-opacity:0"/>
</linearGradient>
<circle fill="url(#SVGID_2_)" cx="600" cy="498.7" r="493.3"/>
<circle fill="#3093D3" cx="589.5" cy="512.6" r="375.7"/>
<path fill="#161616" d="M600,4.3c-270.5,0-490.3,219.8-490.3,490.3C109.7,764.9,329.5,985,600,985s490.3-220.1,490.3-490.3
	C1090.3,224.1,870.3,4.3,600,4.3z M844.2,779.7c-5.4,10.2-16.6,15.8-30.9,15.8h-67.1c-22.3,0-48.3-14.2-60.4-33l-83.5-130.2
	c-1.3-2.1-2.7-3-3-3.2c0.3,0-1.1,0.8-2.4,3.2l-83.7,130.2c-12.1,18.8-38.1,33-60.4,33h-66.3c-14.2,0-25.2-5.9-30.9-15.8
	c-5.4-10.2-4.3-22.8,3.5-34.4l146-222.8c5.6-8.6,5.6-24.4,0-33L375.9,289.9c-7.5-11.8-8.9-24.4-3.5-34.6
	c5.6-10.2,16.6-15.8,30.9-15.8h63.1c22.3,0,48.3,14.2,60.1,33.3l73,117c1.1,1.6,1.9,2.4,2.4,2.7c0.3-0.3,1.1-1.1,1.9-2.7l71.4-116.7
	c11.8-19.1,37.6-33.5,59.8-33.5h62c14,0,25.2,5.9,30.9,15.8c5.6,10.2,4.3,22.5-3.2,34.6L694.2,493.3c-5.6,8.6-5.4,24.4,0.3,33
	l145.7,219.3C848.3,756.8,849.6,769.5,844.2,779.7z"/>
<linearGradient id="SVGID_3_" gradientUnits="userSpaceOnUse" x1="186.2559" y1="998.8666" x2="186.2559" y2="669.9103" gradientTransform="matrix(2.683 0 0 -2.683 100.2684 2685.3647)">
	<stop  offset="0" style="stop-color:#F7F8F9;stop-opacity:0.5"/>
	<stop  offset="0.8" style="stop-color:#161616;stop-opacity:0"/>
</linearGradient>
<circle fill="url(#SVGID_3_)" cx="600" cy="498.7" r="493.3"/>
<path display="none" fill="#3093D3" d="M817.1,853.5v118.9h151.4V853.5 M827.9,853.5V821c0-35.7,29.3-64.9,64.9-64.9
	c35.7,0,64.9,29.3,64.9,64.9v32.5H936V821c0-23.9-19.6-43.2-43.2-43.2s-43.2,19.6-43.2,43.2v32.5"/>
<path display="none" fill="#3093D3" d="M821.7,251.7l71.1-219.3l71.1,219.3L777.4,116.2h230.8"/>
</svg>
