<?xml version="1.0" encoding="utf-8"?>
<!-- Generator: Adobe Illustrator 18.1.1, SVG Export Plug-In . SVG Version: 6.00 Build 0)  -->
<svg version="1.1"
	 id="svg4136" inkscape:version="0.91pre4 r13712" sodipodi:docname="Xbox Logo.svg" xmlns:inkscape="http://www.inkscape.org/namespaces/inkscape" xmlns:sodipodi="http://sodipodi.sourceforge.net/DTD/sodipodi-0.dtd" xmlns:rdf="http://www.w3.org/1999/02/22-rdf-syntax-ns#" xmlns:dc="http://purl.org/dc/elements/1.1/" xmlns:svg="http://www.w3.org/2000/svg" xmlns:cc="http://creativecommons.org/ns#"
	 xmlns="http://www.w3.org/2000/svg" xmlns:xlink="http://www.w3.org/1999/xlink" x="0px" y="0px" viewBox="0 0 372.4 372.6"
	 enable-background="new 0 0 372.4 372.6" xml:space="preserve">
<title  id="title4166">Xbox Logo</title>
<sodipodi:namedview  id="namedview4138" inkscape:pageopacity="0" inkscape:pageshadow="2" inkscape:window-width="1920" inkscape:window-height="1017" inkscape:window-x="-8" inkscape:window-y="-8" inkscape:current-layer="g4146" fit-margin-right="0" fit-margin-bottom="0" inkscape:window-maximized="1" inkscape:cx="120.11921" guidetolerance="10" inkscape:zoom="2.2378738" gridtolerance="10" showgrid="false" bordercolor="#666666" borderopacity="1" inkscape:cy="190.18765" objecttolerance="10" pagecolor="#ffffff" fit-margin-left="0" fit-margin-top="0">
	</sodipodi:namedview>
<g id="g4146" transform="translate(-1.5706619,12.357467)" display="none">
	<path id="path4148" inkscape:connector-curvature="0" display="inline" d="M169.2,359.4c-28.7-2.7-57.7-13-82.7-29.3
		c-20.9-13.6-25.6-19.2-25.6-30.4c0-22.5,24.7-61.8,67-106.7c24-25.5,57.5-55.4,61.1-54.6c7,1.6,63.3,56.4,84.3,82.2
		c33.3,40.8,48.6,74.2,40.8,89.1c-5.9,11.3-42.6,33.5-69.5,42C222.4,358.8,193.2,361.7,169.2,359.4L169.2,359.4z M32.7,276.3
		c-17.4-26.6-26.1-52.9-30.4-90.8c-1.4-12.5-0.9-19.7,3.2-45.4c5.1-32.1,23.3-69.1,45.3-92c9.3-9.7,10.2-10,21.6-6.1
		c13.8,4.7,28.6,14.9,51.5,35.6l13.4,12.1l-7.3,9c-34,41.5-69.8,100.5-83.3,137c-7.3,19.8-10.3,39.8-7.1,48
		C41.7,289.3,39.8,287.3,32.7,276.3z M337.6,280.9c1.7-8.4-0.5-23.8-5.5-39.3c-11-33.6-47.8-96.1-81.7-138.6l-10.6-13.4L251.3,79
		c15-13.8,25.5-22.1,36.7-29.1c8.9-5.5,21.6-10.4,27.1-10.4c3.4,0,15.2,12.3,24.8,25.7c14.8,20.8,25.7,46,31.2,72.2
		c3.6,16.9,3.9,53.2,0.6,70.1c-2.7,13.9-8.4,31.9-14,44.1c-4.2,9.1-14.5,26.9-19.1,32.7C336.3,287.3,336.3,287.3,337.6,280.9
		L337.6,280.9z M172.3,33.1c-15.6-7.9-39.7-16.4-53-18.7c-4.7-0.8-12.6-1.2-17.7-1c-11,0.6-10.5,0,7.1-8.3
		c14.6-6.9,26.8-11,43.4-14.5c18.6-3.9,53.7-4,72-0.1c19.8,4.2,43.1,12.9,56.3,20.9l3.9,2.4l-9-0.5c-17.8-0.9-43.8,6.3-71.6,19.9
		c-8.4,4.1-15.7,7.4-16.3,7.3C187,40.4,180.1,37.1,172.3,33.1z"/>
</g>
<circle fill="#D03634" cx="182.3" cy="193" r="140"/>
<path fill="#161616" d="M211.5,208.4c-3.6-1.3-12.7-2.7-36-2.7h-22.3c-3.4,0-6.2,2.8-6.2,6.2v32.2c0,3.4,2.8,6.2,6.2,6.2h27.4
	c18.7,0,25.6-0.6,28.2-1.2c5.2-1,9.2-3.1,12.3-6.6c3-3.4,4.4-8,4.4-14c0-5.2-1.2-9.3-3.5-12.8C219.5,212.4,216.1,210,211.5,208.4z"
	/>
<path fill="#161616" d="M157,158.2h15.8c16.4,0,26.6-0.2,30.4-0.7c5.9-0.7,10.5-2.7,13.7-5.9c3-3,4.5-7.1,4.5-12.3
	c0-2.5-0.3-4.7-0.9-6.7c-0.9-2.9-5.3-7.7-8.2-8.9c-2-0.9-4.4-1.5-7.1-1.8c-3.9-0.4-16-0.7-35.9-0.7h-12.4c-3.4,0-6.2,2.8-6.2,6.2
	V152C150.8,155.4,153.6,158.2,157,158.2z"/>
<path fill="#161616" d="M186.2,2.9C85.2,2.9,3.1,85,3.1,186s82.1,183.1,183.1,183.1S369.3,286.9,369.3,186
	C369.3,85,287.2,2.9,186.2,2.9z M284.3,261.4c-4.9,10-11.8,18.1-20.4,24.1c-8.5,6-19.1,9.8-31.5,11.1c-7.6,0.8-25.2,1.3-52.3,1.5
	l0,0h-60c-10.1,0-18.3-8.2-18.3-18.3V92.2c0-10.1,8.2-18.3,18.3-18.3h72.6c17.3,0,29.9,0.7,38.6,2.2c9.1,1.5,17.3,4.8,24.5,9.7
	c7.3,5,13.4,11.6,18.1,19.7c4.9,8.3,7.4,17.7,7.4,27.9c0,11.1-3,21.4-9,30.6c-3.5,5.4-7.8,10.1-12.7,13.9c-0.2,0.1-0.3,0.2-0.4,0.3
	c0.1,0.1,0.2,0.1,0.3,0.2c8.3,4.1,15.2,9.7,20.5,16.6c7.8,10.1,11.7,22.1,11.7,35.7C291.7,241.1,289.2,251.5,284.3,261.4z"/>
<linearGradient id="SVGID_1_" gradientUnits="userSpaceOnUse" x1="186.2372" y1="1.1332" x2="186.2372" y2="330.0895" gradientTransform="matrix(0.9997 0 0 0.9997 0 0.8669)">
	<stop  offset="0" style="stop-color:#F7F8F9;stop-opacity:0.5"/>
	<stop  offset="0.8" style="stop-color:#161616;stop-opacity:0"/>
</linearGradient>
<circle fill="url(#SVGID_1_)" cx="186.2" cy="185.8" r="183.8"/>
<circle fill="#E3C926" cx="182.3" cy="193" r="140"/>
<path fill="#161616" d="M186.2,2.6C84.9,2.6,2.5,85,2.5,186.3S84.9,370,186.2,370s183.7-82.4,183.7-183.7S287.5,2.6,186.2,2.6z
	 M277.1,114.5L217,209.3c-2.7,4.3-5.1,12.6-5.1,17.7v59.7c0,9.6-7.8,17.4-17.4,17.4h-16.8c-9.6,0-17.4-7.8-17.4-17.4v-60
	c0-5.1-2.4-13.4-5.1-17.7l-59.8-94.5c-2.8-4.5-3.2-9.2-1.2-13c2.1-3.8,6.3-5.9,11.6-5.9h23.8c8.4,0,18.1,5.5,22.4,12.7l34.6,58.2
	c0.2,0.4,0.4,0.6,0.6,0.8c0.1-0.2,0.3-0.4,0.5-0.8l33.9-58.1c4.3-7.3,13.9-12.8,22.3-12.8h23c5.3,0,9.5,2.2,11.6,6
	C280.3,105.3,279.9,110,277.1,114.5z"/>
<linearGradient id="SVGID_2_" gradientUnits="userSpaceOnUse" x1="186.2372" y1="1.1332" x2="186.2372" y2="330.0895" gradientTransform="matrix(0.9997 0 0 0.9997 0 0.8669)">
	<stop  offset="0" style="stop-color:#F7F8F9;stop-opacity:0.5"/>
	<stop  offset="0.8" style="stop-color:#161616;stop-opacity:0"/>
</linearGradient>
<circle fill="url(#SVGID_2_)" cx="186.2" cy="185.8" r="183.8"/>
<circle fill="#3093D3" cx="182.3" cy="191" r="140"/>
<path fill="#161616" d="M186.2,1.6C85.4,1.6,3.5,83.5,3.5,184.3C3.5,285,85.4,367,186.2,367s182.7-82,182.7-182.7
	C368.9,83.5,286.9,1.6,186.2,1.6z M277.2,290.5c-2,3.8-6.2,5.9-11.5,5.9h-25c-8.3,0-18-5.3-22.5-12.3l-31.1-48.5
	c-0.5-0.8-1-1.1-1.1-1.2c0.1,0-0.4,0.3-0.9,1.2l-31.2,48.5c-4.5,7-14.2,12.3-22.5,12.3h-24.7c-5.3,0-9.4-2.2-11.5-5.9
	c-2-3.8-1.6-8.5,1.3-12.8l54.4-83c2.1-3.2,2.1-9.1,0-12.3L102.7,108c-2.8-4.4-3.3-9.1-1.3-12.9c2.1-3.8,6.2-5.9,11.5-5.9h23.5
	c8.3,0,18,5.3,22.4,12.4l27.2,43.6c0.4,0.6,0.7,0.9,0.9,1c0.1-0.1,0.4-0.4,0.7-1l26.6-43.5c4.4-7.1,14-12.5,22.3-12.5h23.1
	c5.2,0,9.4,2.2,11.5,5.9c2.1,3.8,1.6,8.4-1.2,12.9l-48.6,75.8c-2.1,3.2-2,9.1,0.1,12.3l54.3,81.7C278.7,282,279.2,286.7,277.2,290.5
	z"/>
<linearGradient id="SVGID_3_" gradientUnits="userSpaceOnUse" x1="186.2372" y1="1.1332" x2="186.2372" y2="330.0895" gradientTransform="matrix(0.9997 0 0 0.9997 0 0.8669)">
	<stop  offset="0" style="stop-color:#F7F8F9;stop-opacity:0.5"/>
	<stop  offset="0.8" style="stop-color:#161616;stop-opacity:0"/>
</linearGradient>
<circle fill="url(#SVGID_3_)" cx="186.2" cy="185.8" r="183.8"/>
<path fill="#3093D3" d="M267.1,318v44.3h56.4V318 M271.1,318v-12.1c0-13.3,10.9-24.2,24.2-24.2c13.3,0,24.2,10.9,24.2,24.2V318h-8.1
	v-12.1c0-8.9-7.3-16.1-16.1-16.1s-16.1,7.3-16.1,16.1V318"/>
<path display="none" fill="#3093D3" d="M268.8,93.8l26.5-81.7l26.5,81.7l-69.5-50.5h86"/>
</svg>
