<?xml version="1.0" encoding="utf-8"?>
<!-- Generator: Adobe Illustrator 18.1.1, SVG Export Plug-In . SVG Version: 6.00 Build 0)  -->
<svg version="1.1" id="Layer_1" xmlns="http://www.w3.org/2000/svg" xmlns:xlink="http://www.w3.org/1999/xlink" x="0px" y="0px"
	 width="2500px" height="490px" viewBox="650 256 2500 490" enable-background="new 650 256 2500 490" xml:space="preserve">
<path fill="#6B6B6B" d="M2874,346.2v250l-184.1-250.2l-30.2,0v304.4h33.8V405.9L2874,650.6l33.9,0V346.2H2874z M2483.6,339.2
	c-85.6,0-145.4,65.5-145.4,159.2c0,93.9,59.8,159.3,145.4,159.3c85.5,0,145.1-65.4,145.1-159.3
	C2628.8,404.6,2569.2,339.2,2483.6,339.2 M2483.6,625.4c-65.2,0-110.9-52.3-110.9-127.1c0-74.7,45.7-127,110.9-127
	c65.1,0,110.5,52.3,110.5,127C2594.2,573.1,2548.7,625.4,2483.6,625.4 M2980.1,620.8V508.2h167.5v-29.8h-167.5V375.8h178.9V346H2946
	v304.6h215.2v-29.8H2980.1z"/>
<path fill="#177D3E" d="M2242.9,650.9l-97.3-132.1l-97.3,132.1h-40.1l117-159.6l-106.9-145h40.1l87.1,118.3l87-118.3h40l-106.8,145
	l117,159.6L2242.9,650.9z M1707.2,502.8c-6-5.1-12.8-9.4-19.9-12.7c22.1-12,36.6-34.7,36.6-61c0-19.5-7.2-82.9-99-82.9h-123.7v131.3
	h-41.2c-7.6,10-15,20.2-22.1,30.6h63.3v142.7l123.7,0c67,0,108.6-34,108.6-88.9C1733.5,538,1724.4,517.6,1707.2,502.8 M1535.3,378
	h89.5c24.2,0,64.8,6,64.8,48.4c0,32-23.6,51.1-64.8,51.1h-89.5V378L1535.3,378z M1624.8,619.1h-89.5V508.2h89.5
	c33.9,0,74.5,9.4,74.5,53.1C1699.4,611.5,1652.7,619.1,1624.8,619.1"/>
<path fill="#177D3E" d="M1894.4,339.2c-85.6,0-145.4,65.5-145.4,159.2c0,93.9,59.8,159.3,145.4,159.3c85.5,0,145.1-65.4,145.1-159.3
	C2039.5,404.7,1979.9,339.2,1894.4,339.2 M1894.4,625.4c-65.2,0-110.8-52.3-110.8-127c0-74.7,45.7-127,110.8-127
	c65.1,0,110.5,52.2,110.5,127C2004.9,573.2,1959.5,625.4,1894.4,625.4 M1484.5,650.8l-117.1-159.6l106.9-145h-40l-87.1,118.3
	l-87-118.3h-39.9l106.8,145l-117.1,159.6h40.1l97.2-132.1l97.3,132.1H1484.5z"/>
<g transform="translate(-3.408 36.558)">
	<path fill="#666666" d="M1160.4,466.3c0,135.3-111,245-247.8,245s-247.8-109.7-247.8-245c0-135.3,111-245,247.8-245
		S1160.4,331,1160.4,466.3L1160.4,466.3z"/>
	
		<radialGradient id="SVGID_1_" cx="127.4933" cy="-613.7432" r="14.351" gradientTransform="matrix(0 24.8768 -22.0902 0 -12649.541 -2731.5388)" gradientUnits="userSpaceOnUse">
		<stop  offset="0" style="stop-color:#FFFFFF"/>
		<stop  offset="1" style="stop-color:#FFFFFF;stop-opacity:0"/>
	</radialGradient>
	<path fill="url(#SVGID_1_)" d="M1160.4,466.3c0,135.3-111,245-247.8,245s-247.8-109.7-247.8-245c0-135.3,111-245,247.8-245
		S1160.4,331,1160.4,466.3L1160.4,466.3z"/>
	
		<radialGradient id="SVGID_2_" cx="127.4933" cy="-613.7432" r="14.351" gradientTransform="matrix(0 24.8768 -22.0902 0 -12649.541 -2731.5388)" gradientUnits="userSpaceOnUse">
		<stop  offset="0" style="stop-color:#FFFFFF"/>
		<stop  offset="1" style="stop-color:#FFFFFF;stop-opacity:0"/>
	</radialGradient>
	<path fill="url(#SVGID_2_)" d="M1160.4,466.3c0,135.3-111,245-247.8,245s-247.8-109.7-247.8-245c0-135.3,111-245,247.8-245
		S1160.4,331,1160.4,466.3L1160.4,466.3z"/>
	
		<radialGradient id="SVGID_3_" cx="127.4933" cy="-613.7432" r="14.351" gradientTransform="matrix(0 24.8768 -22.0902 0 -12649.541 -2731.5388)" gradientUnits="userSpaceOnUse">
		<stop  offset="0" style="stop-color:#FFFFFF"/>
		<stop  offset="1" style="stop-color:#FFFFFF;stop-opacity:0"/>
	</radialGradient>
	<path fill="url(#SVGID_3_)" d="M1160.4,466.3c0,135.3-111,245-247.8,245s-247.8-109.7-247.8-245c0-135.3,111-245,247.8-245
		S1160.4,331,1160.4,466.3L1160.4,466.3z"/>
	<path fill="#00A54D" d="M849.7,359c-27.4,33.2-142,168-131.8,259.1c7.1,9,14.9,17.4,23.1,25.3c-1.2-69.8,80.7-144.4,144.6-200.8
		L849.7,359L849.7,359z"/>
	<g transform="matrix(1.0075 0 0 1.00084 1.107 -34.878)">
		
			<linearGradient id="SVGID_4_" gradientUnits="userSpaceOnUse" x1="234.4847" y1="-113.5461" x2="230.5287" y2="-118.1861" gradientTransform="matrix(14.9107 0 0 14.7137 -2680.1262 2239.7153)">
			<stop  offset="0" style="stop-color:#97CA43"/>
			<stop  offset="1" style="stop-color:#97CA43;stop-opacity:0"/>
		</linearGradient>
		<path fill="url(#SVGID_4_)" d="M842.3,393.6c-27.1,33.1-140.9,167.8-130.8,258.9c7,9,14.8,17.3,22.9,25.2
			c-1.2-69.7,80.1-144.3,143.5-200.6L842.3,393.6z"/>
	</g>
	<g transform="matrix(1.0075 0 0 1.00084 .968 -34.846)">
		<path fill="#02A74D" d="M775.7,292.6c-14.1,8.6-27.3,18.6-39.5,29.8c39,7.5,78.1,42,99.6,70.7c18.7,29.4,28.8,56.4,42,84.2
			c9.2-7.9,18.5-15.7,27.9-23.3l-0.1-120.8c-29.1-18.2-77.1-42.1-129.5-40.6C776,292.6,775.8,292.5,775.7,292.6L775.7,292.6z"/>
		
			<linearGradient id="SVGID_5_" gradientUnits="userSpaceOnUse" x1="234.6763" y1="-124.6899" x2="238.3003" y2="-132.7329" gradientTransform="matrix(14.9107 0 0 14.7137 -2686.1145 2240.1536)">
			<stop  offset="0" style="stop-color:#97CA43"/>
			<stop  offset="1" style="stop-color:#97CA43;stop-opacity:0"/>
		</linearGradient>
		<path fill="url(#SVGID_5_)" d="M775.7,292.6c-14.1,8.6-27.3,18.6-39.5,29.8c39,7.5,78.1,42,99.6,70.7c18.7,29.4,28.8,56.4,42,84.2
			c9.2-7.9,18.5-15.7,27.9-23.3l-0.1-120.8c-29.1-18.2-77.1-42.1-129.5-40.6C776,292.6,775.8,292.5,775.7,292.6L775.7,292.6z"/>
	</g>
	<g>
		<path fill="#00A54D" d="M975.6,359.1c27.3,33.2,141.5,168.1,131.4,259.3c-7.1,9-14.8,17.4-23,25.3c1.2-69.8-80.4-144.6-144.1-201
			L975.6,359.1L975.6,359.1z"/>
		<g transform="matrix(-1.00417 0 0 1.00169 61.912 -34.88)">
			
				<linearGradient id="SVGID_6_" gradientUnits="userSpaceOnUse" x1="-2933.4995" y1="-114.5617" x2="-2937.4546" y2="-119.2017" gradientTransform="matrix(14.8128 0 0 14.7394 42484.4102 2229.9165)">
				<stop  offset="0" style="stop-color:#97CA43"/>
				<stop  offset="1" style="stop-color:#97CA43;stop-opacity:0"/>
			</linearGradient>
			<path fill="url(#SVGID_6_)" d="M-909.9,393.3c-27.1,33.1-140.9,167.8-130.8,258.9c7.1,8.9,14.7,17.4,22.9,25.3
				c-1.2-69.7,80.1-144.3,143.5-200.6L-909.9,393.3z"/>
		</g>
		<g transform="matrix(-1.00417 0 0 1.00169 62.051 -34.848)">
			<path fill="#02A74D" d="M-976.5,292.3c-14.1,8.6-27.3,18.6-39.5,29.8c39,7.5,78.2,42,99.6,70.7c18.7,29.4,28.9,56.4,42,84.2
				c8.9-7.6,18-15.4,27.9-23.3l-0.1-120.9c-29.1-18.2-77.1-42.1-129.5-40.6C-976.1,292.4-976.4,292.2-976.5,292.3L-976.5,292.3z"/>
			
				<linearGradient id="SVGID_7_" gradientUnits="userSpaceOnUse" x1="-2928.8113" y1="-125.8023" x2="-2925.7151" y2="-130.8453" gradientTransform="matrix(14.8128 0 0 14.7394 42482.5078 2230.3694)">
				<stop  offset="0" style="stop-color:#97CA43"/>
				<stop  offset="1" style="stop-color:#97CA43;stop-opacity:0"/>
			</linearGradient>
			<path fill="url(#SVGID_7_)" d="M-976.5,292.3c-14.1,8.6-27.3,18.6-39.5,29.8c39,7.5,78.2,42,99.6,70.7
				c18.7,29.4,28.9,56.4,42,84.2c8.9-7.6,18-15.4,27.9-23.3l-0.1-120.9c-29.1-18.2-77.1-42.1-129.5-40.6
				C-976.1,292.4-976.4,292.2-976.5,292.3L-976.5,292.3z"/>
		</g>
	</g>
</g>
</svg>
