<?xml version="1.0" encoding="UTF-8"?><svg xmlns="http://www.w3.org/2000/svg" xmlns:xlink="http://www.w3.org/1999/xlink" version="1.1" id="Layer_1" x="0px" y="0px" viewBox="0 0 48 48" xml:space="preserve"><circle cx="24.001" cy="24" r="20" fill="#7CB342"/><path d="M38.59 10.32s-.85-1.07-2.19-1.08c-1.32-.01-2.72.6-3.94 1.4-.05.03-.08.05-.08.05l-.01.02c-2.6 1.57-4.37 3.77-4.37 3.77 2.27 2.17 7.86 9.35 9.66 13.77 2.75 6.76 1.04 9.23 1.04 9.23-.32-3.7-5.96-10.29-7.93-12.39-1-1.073-5.888-6.042-6.77-6.938-.882.896-5.77 5.865-6.77 6.938-1.97 2.1-7.61 8.69-7.93 12.39 0 0-1.71-2.47 1.04-9.23 1.8-4.42 7.39-11.6 9.66-13.77 0 0-1.77-2.2-4.37-3.77l-.01-.02s-.03-.02-.08-.05c-1.22-.8-2.62-1.41-3.94-1.4-1.34.01-2.19 1.08-2.19 1.08C6.05 13.91 4 18.7 4 24c0 11.05 8.95 20 20 20s20-8.95 20-20c0-5.3-2.05-10.09-5.41-13.68z" fill="#CFD8DC"/><path d="M34.76 7.12C31.63 5.09 28.01 4 24 4s-7.63 1.09-10.76 3.12c-.1.07-.27.2-.39.32.02-.01.04-.03.06-.04.56-.44 1.72-.82 3.41-.36 2.01.55 4.73 2.69 7.68 4.96 2.95-2.27 5.67-4.41 7.68-4.96 1.69-.46 2.85-.08 3.41.36.02.01.04.03.06.04-.12-.12-.29-.25-.39-.32z" fill="#CFD8DC"/><metadata><rdf:RDF xmlns:rdf="http://www.w3.org/1999/02/22-rdf-syntax-ns#" xmlns:rdfs="http://www.w3.org/2000/01/rdf-schema#" xmlns:dc="http://purl.org/dc/elements/1.1/"><rdf:Description about="https://iconscout.com/legal#licenses" dc:title="xbox" dc:description="xbox" dc:publisher="Iconscout" dc:date="2017-12-15" dc:format="image/svg+xml" dc:language="en"><dc:creator><rdf:Bag><rdf:li>Icons8</rdf:li></rdf:Bag></dc:creator></rdf:Description></rdf:RDF></metadata></svg>